<?xml version="1.0" encoding="UTF-8" standalone="no"?>
<!-- Created with Inkscape (http://www.inkscape.org/) -->

<svg
   version="1.1"
   id="svg1"
   width="2548.7334"
   height="1432.5067"
   viewBox="0 0 2548.7334 1432.5067"
   sodipodi:docname="Logo_Askill_fondos_negros.svg"
   inkscape:version="1.4.4 (dcaf3e7, 2026-05-05)"
   inkscape:export-filename="Logo_Askill_fondos_negros.png"
   inkscape:export-xdpi="96"
   inkscape:export-ydpi="96"
   xmlns:inkscape="http://www.inkscape.org/namespaces/inkscape"
   xmlns:sodipodi="http://sodipodi.sourceforge.net/DTD/sodipodi-0.dtd"
   xmlns="http://www.w3.org/2000/svg"
   xmlns:svg="http://www.w3.org/2000/svg">
  <defs
     id="defs1">
    <clipPath
       clipPathUnits="userSpaceOnUse"
       id="clipPath2">
      <path
         d="M 0,1074.3831 H 1911.545 V 2.5000001e-5 H 0 Z"
         id="path2" />
    </clipPath>
    <clipPath
       clipPathUnits="userSpaceOnUse"
       id="clipPath4">
      <path
         d="M -1736.8731,1022.1048 H 174.67198 V -52.278276 H -1736.8731 Z"
         id="path4" />
    </clipPath>
    <clipPath
       clipPathUnits="userSpaceOnUse"
       id="clipPath6">
      <path
         d="M -1736.8731,1060.3044 H 174.67198 V -14.078675 H -1736.8731 Z"
         id="path6" />
    </clipPath>
    <clipPath
       clipPathUnits="userSpaceOnUse"
       id="clipPath8">
      <path
         d="M -1736.8731,1098.504 H 174.67198 V 24.121001 H -1736.8731 Z"
         id="path8" />
    </clipPath>
    <clipPath
       clipPathUnits="userSpaceOnUse"
       id="clipPath10">
      <path
         d="M -2004.2893,1022.1048 H -92.744202 V -52.278276 H -2004.2893 Z"
         id="path10" />
    </clipPath>
    <clipPath
       clipPathUnits="userSpaceOnUse"
       id="clipPath12">
      <path
         d="M -2004.2893,1060.3044 H -92.744202 V -14.078675 H -2004.2893 Z"
         id="path12" />
    </clipPath>
    <clipPath
       clipPathUnits="userSpaceOnUse"
       id="clipPath14">
      <path
         d="M -2004.2893,1098.504 H -92.744202 V 24.121001 H -2004.2893 Z"
         id="path14" />
    </clipPath>
  </defs>
  <sodipodi:namedview
     id="namedview1"
     pagecolor="#505050"
     bordercolor="#eeeeee"
     borderopacity="1"
     inkscape:showpageshadow="0"
     inkscape:pageopacity="0"
     inkscape:pagecheckerboard="0"
     inkscape:deskcolor="#505050"
     inkscape:zoom="0.39834729"
     inkscape:cx="1287.821"
     inkscape:cy="904.98921"
     inkscape:window-width="1920"
     inkscape:window-height="1009"
     inkscape:window-x="-8"
     inkscape:window-y="-8"
     inkscape:window-maximized="1"
     inkscape:current-layer="layer-MC1">
    <inkscape:page
       x="0"
       y="0"
       inkscape:label="1"
       id="page1"
       width="2548.7334"
       height="1432.5067"
       margin="0"
       bleed="0" />
  </sodipodi:namedview>
  <g
     id="layer-MC1"
     inkscape:groupmode="layer"
     inkscape:label="Capa 3">
    <path
       id="path92"
       d="M 0,1432.5106 H 2548.7266 V 0 H 0 Z"
       style="fill:none;fill-opacity:1;fill-rule:nonzero;stroke:none;stroke-width:1.33333" />
    <g
       id="g130"
       transform="translate(21.274895)">
      <g
         id="g128">
        <path
           id="path93"
           d="m 0,0 h -227.912 c -22.091,0 -40,17.909 -40,40 v 51.295 c 0,22.091 17.909,40 40,40 H 0 c 22.091,0 40,-17.909 40,-40 V 40 C 40,17.909 22.091,0 0,0"
           style="fill:#f3672e;fill-opacity:1;fill-rule:nonzero;stroke:none"
           transform="matrix(1.3333333,0,0,-1.3333333,650.36173,927.1784)" />
        <path
           id="path94"
           d="m 0,0 h -429.63 c -22.092,0 -40,17.909 -40,40 v 76.197 c 0,22.092 17.908,40 40,40 H 0 c 22.091,0 40,-17.908 40,-40 V 40 C 40,17.909 22.091,0 0,0"
           style="fill:#2f2c2c;fill-opacity:1;fill-rule:nonzero;stroke:none"
           transform="matrix(1.3333333,0,0,-1.3333333,784.4984,1012.4809)" />
        <path
           id="path95"
           d="M 0,0 H 102.723"
           style="fill:none;stroke:#ffffff;stroke-width:6;stroke-linecap:round;stroke-linejoin:round;stroke-miterlimit:4;stroke-dasharray:none;stroke-opacity:1"
           transform="matrix(1.3333333,0,0,-1.3333333,373.5112,911.18293)" />
        <path
           id="path96"
           d="M 0,0 H -46.225"
           style="fill:none;stroke:#ffffff;stroke-width:6;stroke-linecap:round;stroke-linejoin:round;stroke-miterlimit:4;stroke-dasharray:none;stroke-opacity:1"
           transform="matrix(1.3333333,0,0,-1.3333333,342.86373,913.30373)" />
        <path
           id="path97"
           d="M 0,0 V -73.54"
           style="fill:none;stroke:#ffffff;stroke-width:6;stroke-linecap:round;stroke-linejoin:round;stroke-miterlimit:4;stroke-dasharray:none;stroke-opacity:1"
           transform="matrix(1.3333333,0,0,-1.3333333,344.34267,862.1192)" />
        <path
           id="path98"
           d="M 0,0 V -73.54"
           style="fill:none;stroke:#ffffff;stroke-width:6;stroke-linecap:round;stroke-linejoin:round;stroke-miterlimit:4;stroke-dasharray:none;stroke-opacity:1"
           transform="matrix(1.3333333,0,0,-1.3333333,372.14733,862.1192)" />
        <path
           id="path99"
           d="m 0,0 c 16.171,4.624 27.923,18.611 27.923,35.148 0,16.244 -11.34,30.027 -27.069,34.893"
           style="fill:none;stroke:#ffffff;stroke-width:6;stroke-linecap:round;stroke-linejoin:round;stroke-miterlimit:4;stroke-dasharray:none;stroke-opacity:1"
           transform="matrix(1.3333333,0,0,-1.3333333,611.38467,955.88853)" />
        <path
           id="path100"
           d="M 0,0 46.225,-0.005"
           style="fill:none;stroke:#ffffff;stroke-width:6;stroke-linecap:round;stroke-linejoin:round;stroke-miterlimit:4;stroke-dasharray:none;stroke-opacity:1"
           transform="matrix(1.3333333,0,0,-1.3333333,653.29267,911.17973)" />
        <path
           id="path101"
           d="m 0,0 c -16.171,-4.624 -27.923,-18.611 -27.923,-35.148 0,-16.244 11.34,-30.027 27.069,-34.893"
           style="fill:none;stroke:#ffffff;stroke-width:6;stroke-linecap:round;stroke-linejoin:round;stroke-miterlimit:4;stroke-dasharray:none;stroke-opacity:1"
           transform="matrix(1.3333333,0,0,-1.3333333,547.70667,862.3236)" />
        <path
           id="path102"
           d="m 0,0 c -41.305,0 -45.475,52.613 -12.729,63.469 1.736,0.999 3.568,1.906 5.589,2.61 -14.713,11.389 -33.701,18.289 -54.474,18.289 -46.662,0 -84.489,-34.645 -84.489,-77.382 0,-0.426 0.062,-0.836 0.069,-1.26 4.358,1.843 9.449,2.907 15.288,2.907 39.708,0 45.09,-48.615 16.36,-62.024 14.464,-10.619 32.793,-17.005 52.772,-17.005 46.158,0 83.605,33.917 84.408,76.018 C 19.9,3.994 16.57,2.8 12.894,2.034 9.089,0.751 4.811,0 0,0"
           style="fill:#f3672e;fill-opacity:1;fill-rule:nonzero;stroke:none"
           transform="matrix(1.3333333,0,0,-1.3333333,575.916,503.74867)" />
        <path
           id="path103"
           d="m 0,0 c -41.305,0 -45.475,52.613 -12.729,63.469 1.736,0.999 3.568,1.906 5.589,2.61 -14.713,11.389 -33.701,18.289 -54.474,18.289 -46.662,0 -84.489,-34.645 -84.489,-77.382 0,-0.426 0.062,-0.836 0.069,-1.26 4.358,1.843 9.449,2.907 15.288,2.907 39.708,0 45.09,-48.615 16.36,-62.024 14.464,-10.619 32.793,-17.005 52.772,-17.005 46.158,0 83.605,33.917 84.408,76.018 C 19.9,3.994 16.57,2.8 12.894,2.034 9.089,0.751 4.811,0 0,0"
           style="fill:#f3672e;fill-opacity:1;fill-rule:nonzero;stroke:none"
           transform="matrix(1.3333333,0,0,-1.3333333,575.916,503.74867)" />
        <path
           id="path104"
           d="m 0,0 c 0,-2.307 -2.042,-4.177 -4.561,-4.177 -2.519,0 -4.561,1.87 -4.561,4.177 0,2.307 2.042,4.177 4.561,4.177 C -2.042,4.177 0,2.307 0,0 Z"
           style="fill:none;stroke:#dd492a;stroke-width:5;stroke-linecap:round;stroke-linejoin:round;stroke-miterlimit:4;stroke-dasharray:none;stroke-opacity:1"
           transform="matrix(1.3333333,0,0,-1.3333333,542.7728,569.0108)" />
        <path
           id="path105"
           d="m 0,0 c 0,-2.307 -2.042,-4.177 -4.561,-4.177 -2.519,0 -4.561,1.87 -4.561,4.177 0,2.307 2.042,4.177 4.561,4.177 C -2.042,4.177 0,2.307 0,0 Z"
           style="fill:none;stroke:#dd492a;stroke-width:5;stroke-linecap:round;stroke-linejoin:round;stroke-miterlimit:4;stroke-dasharray:none;stroke-opacity:1"
           transform="matrix(1.3333333,0,0,-1.3333333,421.55427,471.4052)" />
        <path
           id="path106"
           d="m 0,0 c 0,-2.307 -2.042,-4.177 -4.561,-4.177 -2.519,0 -4.561,1.87 -4.561,4.177 0,2.307 2.042,4.177 4.561,4.177 C -2.042,4.177 0,2.307 0,0 Z"
           style="fill:none;stroke:#dd492a;stroke-width:5;stroke-linecap:round;stroke-linejoin:round;stroke-miterlimit:4;stroke-dasharray:none;stroke-opacity:1"
           transform="matrix(1.3333333,0,0,-1.3333333,467.56867,423.3636)" />
        <path
           id="path107"
           d="m 0,0 c 0,-2.307 -2.042,-4.177 -4.561,-4.177 -2.519,0 -4.561,1.87 -4.561,4.177 0,2.307 2.042,4.177 4.561,4.177 C -2.042,4.177 0,2.307 0,0 Z"
           style="fill:none;stroke:#dd492a;stroke-width:5;stroke-linecap:round;stroke-linejoin:round;stroke-miterlimit:4;stroke-dasharray:none;stroke-opacity:1"
           transform="matrix(1.3333333,0,0,-1.3333333,538.71867,417.794)" />
        <path
           id="path108"
           d="m 0,0 c 0,-2.307 -2.042,-4.177 -4.561,-4.177 -2.519,0 -4.561,1.87 -4.561,4.177 0,2.307 2.042,4.177 4.561,4.177 C -2.042,4.177 0,2.307 0,0 Z"
           style="fill:none;stroke:#dd492a;stroke-width:5;stroke-linecap:round;stroke-linejoin:round;stroke-miterlimit:4;stroke-dasharray:none;stroke-opacity:1"
           transform="matrix(1.3333333,0,0,-1.3333333,467.56867,572.9096)" />
        <path
           id="path109"
           d="m 0,0 c 0,-2.307 -2.042,-4.177 -4.561,-4.177 -2.519,0 -4.561,1.87 -4.561,4.177 0,2.307 2.042,4.177 4.561,4.177 C -2.042,4.177 0,2.307 0,0 Z"
           style="fill:none;stroke:#dd492a;stroke-width:5;stroke-linecap:round;stroke-linejoin:round;stroke-miterlimit:4;stroke-dasharray:none;stroke-opacity:1"
           transform="matrix(1.3333333,0,0,-1.3333333,586.76013,522.22547)" />
        <path
           id="path110"
           d="m 0,0 h -128.894 c -11.045,0 -20,8.954 -20,20 v 66.05 c 0,11.046 8.955,20 20,20 H 0 c 11.046,0 20,-8.954 20,-20 V 20 C 20,8.954 11.046,0 0,0"
           style="fill:#2f2c2c;fill-opacity:1;fill-rule:nonzero;stroke:none"
           transform="matrix(1.3333333,0,0,-1.3333333,584.718,745.56493)" />
        <path
           id="path111"
           d="m 0,0 -91.094,-82.25 c -7.228,-6.525 -18.221,-6.525 -25.448,0 l -104.839,94.66 c -8.35,7.539 -8.35,20.645 0,28.184 l 91.094,82.25 c 7.228,6.526 18.221,6.526 25.448,0 L 0,28.184 C 8.35,20.645 8.35,7.539 0,0"
           style="fill:#2f2c2c;fill-opacity:1;fill-rule:nonzero;stroke:none"
           transform="matrix(1.3333333,0,0,-1.3333333,474.84173,362.62627)" />
        <path
           id="path112"
           d="m 0,0 h -79.709 c -24.852,0 -45,20.147 -45,45 v 105.362 c 0,24.853 20.148,45 45,45 H 0 c 24.853,0 45,-20.147 45,-45 V 45 C 45,20.147 24.853,0 0,0"
           style="fill:#ffffff;fill-opacity:1;fill-rule:nonzero;stroke:#2f2c2c;stroke-width:3.75;stroke-linecap:butt;stroke-linejoin:miter;stroke-miterlimit:10;stroke-dasharray:none;stroke-opacity:1"
           transform="matrix(1.3333333,0,0,-1.3333333,343.51067,428.0156)" />
        <path
           id="path113"
           d="M 0,0 22.071,40.7"
           style="fill:#ffffff;fill-opacity:1;fill-rule:nonzero;stroke:#2f2c2c;stroke-width:6;stroke-linecap:round;stroke-linejoin:round;stroke-miterlimit:4;stroke-dasharray:none;stroke-opacity:1"
           transform="matrix(1.3333333,0,0,-1.3333333,275.52293,379.47693)" />
        <path
           id="path114"
           d="m 0,0 36.282,15.709 c 0,0 0.045,0.019 0.12,0.051 C 33.245,17.171 0.978,31.211 0.978,31.211"
           style="fill:#ffffff;fill-opacity:1;fill-rule:nonzero;stroke:#2f2c2c;stroke-width:6;stroke-linecap:round;stroke-linejoin:round;stroke-miterlimit:4;stroke-dasharray:none;stroke-opacity:1"
           transform="matrix(1.3333333,0,0,-1.3333333,314.6116,374.32987)" />
        <path
           id="path115"
           d="M 0,0 -36.402,-15.603 0,-31.211"
           style="fill:#ffffff;fill-opacity:1;fill-rule:nonzero;stroke:#2f2c2c;stroke-width:6;stroke-linecap:round;stroke-linejoin:round;stroke-miterlimit:4;stroke-dasharray:none;stroke-opacity:1"
           transform="matrix(1.3333333,0,0,-1.3333333,264.18907,332.7152)" />
        <path
           id="path116"
           d="M 25.14988,-7.9297759 H 11.251442 L 8.6147234,3.8244735e-4 H 0.18894219 L 14.497536,-38.456343 h 7.347656 L 36.235817,3.8244735e-4 H 27.810036 Z M 13.395973,-14.341393 h 9.609375 L 18.177223,-28.735085 Z M 48.265114,3.8244735e-4 H 40.343239 V -38.456343 h 7.921875 z m 0,0"
           style="fill:#2f2c2c;fill-opacity:1;fill-rule:nonzero;stroke:none"
           aria-label="AI"
           transform="matrix(1.3333333,0,0,1.2038694,255.59573,257.55813)" />
        <path
           id="path117"
           d="M 0,0 H 35.419"
           style="fill:#306abb;fill-opacity:1;fill-rule:nonzero;stroke:#f3672e;stroke-width:6;stroke-linecap:round;stroke-linejoin:round;stroke-miterlimit:4;stroke-dasharray:none;stroke-opacity:1"
           transform="matrix(1.3333333,0,0,-1.3333333,154.36307,330.81373)" />
        <path
           id="path118"
           d="M 0,0 H 35.419"
           style="fill:#306abb;fill-opacity:1;fill-rule:nonzero;stroke:#f3672e;stroke-width:6;stroke-linecap:round;stroke-linejoin:round;stroke-miterlimit:4;stroke-dasharray:none;stroke-opacity:1"
           transform="matrix(1.3333333,0,0,-1.3333333,375.9672,277.13107)" />
        <path
           id="path119"
           d="M 0,0 H 35.419"
           style="fill:#306abb;fill-opacity:1;fill-rule:nonzero;stroke:#f3672e;stroke-width:6;stroke-linecap:round;stroke-linejoin:round;stroke-miterlimit:4;stroke-dasharray:none;stroke-opacity:1"
           transform="matrix(1.3333333,0,0,-1.3333333,375.9672,223.44827)" />
        <path
           id="path120"
           d="M 0,0 H 35.419"
           style="fill:#306abb;fill-opacity:1;fill-rule:nonzero;stroke:#f3672e;stroke-width:6;stroke-linecap:round;stroke-linejoin:round;stroke-miterlimit:4;stroke-dasharray:none;stroke-opacity:1"
           transform="matrix(1.3333333,0,0,-1.3333333,154.36307,223.44827)" />
        <path
           id="path121"
           d="M 0,0 H 35.419"
           style="fill:#306abb;fill-opacity:1;fill-rule:nonzero;stroke:#f3672e;stroke-width:6;stroke-linecap:round;stroke-linejoin:round;stroke-miterlimit:4;stroke-dasharray:none;stroke-opacity:1"
           transform="matrix(1.3333333,0,0,-1.3333333,375.9672,330.81373)" />
        <path
           id="path122"
           d="M 0,0 H 35.419"
           style="fill:#306abb;fill-opacity:1;fill-rule:nonzero;stroke:#f3672e;stroke-width:6;stroke-linecap:round;stroke-linejoin:round;stroke-miterlimit:4;stroke-dasharray:none;stroke-opacity:1"
           transform="matrix(1.3333333,0,0,-1.3333333,154.36307,277.13107)" />
      </g>
      <g
         id="g129"
         transform="translate(0,17.289718)">
        <path
           style="font-weight:700;font-size:327.574px;font-family:Ubuntu;fill:#f3672e"
           d="m 178.20026,0 q -3.60332,-11.792664 -8.18935,-24.240476 -4.25846,-12.447813 -8.51693,-24.895625 H 73.049003 Q 68.790541,-36.688289 64.204505,-24.240476 59.946043,-11.792664 56.342729,0 H 3.2757401 Q 16.051126,-36.688289 27.516216,-67.807819 38.981307,-98.92735 49.791249,-126.44357 q 11.137516,-27.51621 21.619884,-52.08426 10.809942,-24.89563 22.275032,-48.48096 h 48.808525 q 11.13752,23.58533 21.94746,48.48096 10.80994,24.56805 21.61988,52.08426 11.13752,27.51622 22.60261,58.635751 Q 220.12973,-36.688289 232.90512,0 Z m -61.25634,-175.57967 q -1.63787,4.91361 -4.91361,13.43054 -3.27574,8.51692 -7.5342,19.65444 -4.25846,11.13751 -9.499649,24.56805 -4.91361,13.43053 -10.154794,28.171363 h 64.532083 q -5.24119,-14.740833 -10.1548,-28.171363 -4.91361,-13.43054 -9.49964,-24.56805 -4.25847,-11.13752 -7.53421,-19.65444 -3.27574,-8.51693 -5.24118,-13.43054 z M 330.5221,-38.981307 q 10.80994,0 17.689,-1.63787 7.20663,-1.965444 11.46509,-4.91361 4.25846,-3.27574 5.89633,-7.534202 1.63787,-4.258462 1.63787,-9.499646 0,-11.137516 -10.48237,-18.344144 -10.48237,-7.534202 -36.03314,-16.051127 -11.13752,-3.930884 -22.27503,-8.844494 -11.13752,-5.24119 -19.98202,-12.77539 -8.84449,-7.86178 -14.41325,-18.67172 -5.56876,-11.13751 -5.56876,-26.86107 0,-15.72355 5.89633,-28.17136 5.89633,-12.77539 16.70628,-21.61989 10.80994,-8.84449 26.20592,-13.43053 15.39597,-4.91361 34.72284,-4.91361 22.93018,0 39.63646,4.91361 16.70627,4.91361 27.51621,10.80994 l -14.74083,40.29161 q -9.49964,-4.91361 -21.29231,-8.51693 -11.46509,-3.93089 -27.84379,-3.93089 -18.34414,0 -26.53349,5.24119 -7.86178,4.91361 -7.86178,15.39598 0,6.2239 2.94817,10.48236 2.94816,4.25847 8.18935,7.86178 5.56875,3.27574 12.44781,6.22391 7.20663,2.62059 15.72355,5.56875 17.689,6.55148 30.79196,13.10296 13.10296,6.22391 21.61988,14.74083 8.8445,8.51693 13.10296,19.982019 4.25846,11.46509 4.25846,27.84379 0,31.774679 -22.27503,49.463675 -22.27503,17.3614221 -67.15267,17.3614221 -15.0684,0 -27.18864,-1.9654441 -12.12024,-1.63786998 -21.61989,-4.258462 -9.17207,-2.6205921 -16.05112,-5.5687581 -6.55148,-2.9481659 -11.13752,-5.5687579 l 14.41326,-40.619177 q 10.15479,5.568758 24.89562,10.154794 15.06841,4.258462 36.68829,4.258462 z M 593.2367,0 q -6.87906,-11.137516 -16.3787,-23.912902 -9.17207,-13.102961 -20.30959,-25.878347 -10.80994,-13.10296 -22.60261,-24.895624 -11.79266,-12.120238 -23.58533,-21.292311 V 0 h -51.10154 v -227.00879 h 51.10154 v 85.82439 q 19.98202,-20.96473 39.96403,-43.56734 20.30959,-22.93018 37.67101,-42.25705 h 60.60119 q -23.25775,27.51622 -46.84308,53.06699 -23.25775,25.55078 -49.1361,51.42912 27.18864,22.602608 52.41184,53.722139 Q 630.58013,-37.671011 653.83789,0 Z m 90.08287,-227.00879 h 51.10154 V 0 H 683.31957 Z M 938.4997,-43.894917 V 0 H 786.83293 v -227.00879 h 51.10155 v 183.113873 z m 184.4241,0 V 0 H 971.25701 v -227.00879 h 51.10159 v 183.113873 z"
           id="text122"
           transform="matrix(1.3333333,0,0,1.3333333,858.5892,724.16027)"
           aria-label="ASKILL" />
      </g>
    </g>
    <path
       style="font-size:163.759px;font-family:Ubuntu;-inkscape-font-specification:'Ubuntu, Normal';fill:#c7c8c6;stroke-width:1.2118"
       d="m 260.26327,1234.1036 q -2.78391,-7.3691 -5.24029,-14.4108 -2.45639,-7.2054 -5.07653,-14.5745 h -51.42033 l -10.31682,28.9853 h -16.53965 q 6.55036,-18.0135 12.28192,-33.243 5.73157,-15.3934 11.13561,-29.1491 5.56781,-13.7558 10.97186,-26.2015 5.40404,-12.6094 11.29937,-24.8914 h 14.57455 q 5.89532,12.282 11.29937,24.8914 5.40405,12.4457 10.80809,26.2015 5.56781,13.7557 11.29937,29.1491 5.73157,15.2295 12.28193,33.243 z m -14.90207,-42.086 q -5.24029,-14.2471 -10.48058,-27.5115 -5.07653,-13.4283 -10.64433,-25.7102 -5.73157,12.2819 -10.97186,25.7102 -5.07653,13.2644 -10.15306,27.5115 z m 112.01127,39.6297 q -5.24029,1.31 -13.91951,2.7839 -8.51547,1.4738 -19.81484,1.4738 -9.82554,0 -16.53966,-2.7839 -6.71412,-2.9477 -10.8081,-8.188 -4.09397,-5.2403 -5.89532,-12.2819 -1.80135,-7.2054 -1.80135,-15.8846 v -47.8176 h 15.22959 v 44.5424 q 0,15.5571 4.91277,22.2712 4.91277,6.7141 16.53966,6.7141 2.45638,0 5.07653,-0.1637 2.62014,-0.1638 4.91277,-0.3275 2.29262,-0.3275 4.09397,-0.4913 1.96511,-0.3275 2.7839,-0.655 v -71.8902 h 15.22959 z m 40.44838,-82.6983 h 32.26053 v 12.7732 h -32.26053 v 39.3021 q 0,6.3866 0.98256,10.6444 0.98255,4.0939 2.94766,6.5503 1.96511,2.2926 4.91277,3.2752 2.94766,0.9825 6.87788,0.9825 6.87787,0 10.97185,-1.4738 4.25773,-1.6376 5.89532,-2.2926 l 2.94767,12.6094 q -2.29263,1.1463 -8.0242,2.7839 -5.73156,1.8014 -13.10072,1.8014 -8.67922,0 -14.41079,-2.1289 -5.5678,-2.2926 -9.00674,-6.7141 -3.43894,-4.4215 -4.91277,-10.8081 -1.31008,-6.5504 -1.31008,-15.0658 v -75.9842 l 15.22959,-2.6201 z m 124.45693,42.5773 q 0,10.1531 -2.94767,18.341 -2.94766,8.188 -8.35171,14.0833 -5.24028,5.8953 -12.60944,9.1705 -7.36915,3.1114 -16.04838,3.1114 -8.67923,0 -16.04838,-3.1114 -7.36916,-3.2752 -12.77321,-9.1705 -5.24028,-5.8953 -8.18795,-14.0833 -2.94766,-8.1879 -2.94766,-18.341 0,-9.9893 2.94766,-18.1773 2.94767,-8.3517 8.18795,-14.247 5.40405,-5.8953 12.77321,-9.0067 7.36915,-3.2752 16.04838,-3.2752 8.67923,0 16.04838,3.2752 7.36916,3.1114 12.60944,9.0067 5.40405,5.8953 8.35171,14.247 2.94767,8.188 2.94767,18.1773 z m -15.88463,0 q 0,-14.4108 -6.55036,-22.7625 -6.3866,-8.5155 -17.52221,-8.5155 -11.13561,0 -17.68597,8.5155 -6.3866,8.3517 -6.3866,22.7625 0,14.4108 6.3866,22.9263 6.55036,8.3517 17.68597,8.3517 11.13561,0 17.52221,-8.3517 6.55036,-8.5155 6.55036,-22.9263 z m 37.33707,-40.121 q 5.24029,-1.31 13.75576,-2.7839 8.67922,-1.4738 19.9786,-1.4738 8.18795,0 13.75575,2.2926 5.56781,2.1289 9.33427,6.3866 1.14631,-0.8188 3.60269,-2.2926 2.45639,-1.4738 6.05909,-2.7839 3.60269,-1.4738 8.02419,-2.4564 4.42149,-1.1463 9.49802,-1.1463 9.82554,0 16.04838,2.9477 6.22284,2.7839 9.66178,8.0242 3.6027,5.2402 4.74901,12.4456 1.31008,7.2054 1.31008,15.7209 v 47.8176 h -15.22959 v -44.5424 q 0,-7.5329 -0.8188,-12.937 -0.65503,-5.404 -2.7839,-9.0067 -1.96511,-3.6027 -5.5678,-5.2403 -3.43894,-1.8014 -9.00675,-1.8014 -7.69667,0 -12.7732,2.1289 -4.91277,1.9651 -6.71412,3.6027 1.31007,4.2577 1.96511,9.3343 0.65503,5.0765 0.65503,10.6443 v 47.8176 h -15.22958 v -44.5424 q 0,-7.5329 -0.8188,-12.937 -0.81879,-5.404 -2.94766,-9.0067 -1.96511,-3.6027 -5.56781,-5.2403 -3.43894,-1.8014 -8.84298,-1.8014 -2.29263,0 -4.91277,0.1638 -2.62015,0.1638 -5.07653,0.4913 -2.29263,0.1637 -4.25774,0.4913 -1.96511,0.3275 -2.62014,0.4912 v 71.8902 h -15.22959 z m 169.81811,71.7265 q 5.40404,0 9.49802,-0.1638 4.25773,-0.3275 7.04164,-0.9825 v -25.3827 q -1.63759,-0.8188 -5.40405,-1.31 -3.6027,-0.6551 -8.84299,-0.6551 -3.43894,0 -7.36915,0.4913 -3.76646,0.4913 -7.04164,2.1289 -3.11142,1.4738 -5.24029,4.2577 -2.12886,2.6201 -2.12886,7.0416 0,8.188 5.24028,11.4632 5.24029,3.1114 14.24704,3.1114 z m -1.31007,-76.3117 q 9.1705,0 15.39334,2.4564 6.3866,2.2926 10.15306,6.7141 3.93022,4.2577 5.56781,10.3168 1.63759,5.8953 1.63759,13.1007 v 53.2217 q -1.96511,0.3275 -5.56781,0.9826 -3.43894,0.4912 -7.86043,0.9825 -4.4215,0.4913 -9.66178,0.8188 -5.07653,0.4913 -10.15306,0.4913 -7.2054,0 -13.26448,-1.4738 -6.05908,-1.4739 -10.48058,-4.5853 -4.42149,-3.2752 -6.87788,-8.5155 -2.45638,-5.2403 -2.45638,-12.6094 0,-7.0416 2.7839,-12.1182 2.94766,-5.0765 7.86043,-8.1879 4.91277,-3.1114 11.46313,-4.5853 6.55036,-1.4738 13.75576,-1.4738 2.29263,0 4.74901,0.3275 2.45639,0.1638 4.58525,0.655 2.29263,0.3276 3.93022,0.6551 1.63759,0.3275 2.29263,0.4913 v -4.2578 q 0,-3.7664 -0.8188,-7.3691 -0.81879,-3.7665 -2.94766,-6.5504 -2.12887,-2.9477 -5.89532,-4.5852 -3.6027,-1.8014 -9.49803,-1.8014 -7.53291,0 -13.26448,1.1463 -5.5678,0.9826 -8.35171,2.1289 l -1.80134,-12.6095 q 2.94766,-1.31 9.82554,-2.4563 6.87787,-1.3101 14.90207,-1.3101 z m 72.2176,2.1289 h 32.26053 v 12.7732 h -32.26053 v 39.3021 q 0,6.3866 0.98256,10.6444 0.98255,4.0939 2.94766,6.5503 1.96511,2.2926 4.91277,3.2752 2.94766,0.9825 6.87788,0.9825 6.87787,0 10.97185,-1.4738 4.25773,-1.6376 5.89532,-2.2926 l 2.94767,12.6094 q -2.29263,1.1463 -8.0242,2.7839 -5.73156,1.8014 -13.10072,1.8014 -8.67922,0 -14.41079,-2.1289 -5.5678,-2.2926 -9.00674,-6.7141 -3.43894,-4.4215 -4.91277,-10.8081 -1.31008,-6.5504 -1.31008,-15.0658 v -75.9842 l 15.22959,-2.6201 z m 66.81373,85.1546 h -15.22958 v -85.1546 h 15.22958 z m -7.69667,-100.548 q -4.09398,0 -7.04164,-2.6201 -2.7839,-2.7839 -2.7839,-7.3692 0,-4.5852 2.7839,-7.2054 2.94766,-2.7839 7.04164,-2.7839 4.09397,0 6.87788,2.7839 2.94766,2.6202 2.94766,7.2054 0,4.5853 -2.94766,7.3692 -2.78391,2.6201 -6.87788,2.6201 z m 109.06356,57.9707 q 0,10.1531 -2.94766,18.341 -2.94767,8.188 -8.35171,14.0833 -5.24029,5.8953 -12.60945,9.1705 -7.36915,3.1114 -16.04838,3.1114 -8.67922,0 -16.04838,-3.1114 -7.36916,-3.2752 -12.7732,-9.1705 -5.24029,-5.8953 -8.18795,-14.0833 -2.94766,-8.1879 -2.94766,-18.341 0,-9.9893 2.94766,-18.1773 2.94766,-8.3517 8.18795,-14.247 5.40404,-5.8953 12.7732,-9.0067 7.36916,-3.2752 16.04838,-3.2752 8.67923,0 16.04838,3.2752 7.36916,3.1114 12.60945,9.0067 5.40404,5.8953 8.35171,14.247 2.94766,8.188 2.94766,18.1773 z m -15.88462,0 q 0,-14.4108 -6.55036,-22.7625 -6.38661,-8.5155 -17.52222,-8.5155 -11.13561,0 -17.68597,8.5155 -6.3866,8.3517 -6.3866,22.7625 0,14.4108 6.3866,22.9263 6.55036,8.3517 17.68597,8.3517 11.13561,0 17.52222,-8.3517 6.55036,-8.5155 6.55036,-22.9263 z m 37.3371,-40.121 q 5.24028,-1.31 13.91951,-2.7839 8.67923,-1.4738 19.97863,-1.4738 10.153,0 16.8671,2.9477 6.7142,2.7839 10.6444,8.0242 4.094,5.0765 5.7315,12.2819 1.6376,7.2054 1.6376,15.8846 v 47.8176 h -15.2296 v -44.5424 q 0,-7.8604 -1.1463,-13.4282 -0.9825,-5.5679 -3.4389,-9.0068 -2.4564,-3.4389 -6.5504,-4.9128 -4.0939,-1.6376 -10.153,-1.6376 -2.4564,0 -5.0765,0.1638 -2.62019,0.1638 -5.07658,0.4913 -2.29262,0.1637 -4.25773,0.4913 -1.80135,0.3275 -2.62015,0.4912 v 71.8902 h -15.22958 z m 151.64084,71.7265 q 9.3343,0 13.7558,-2.4564 4.5853,-2.4564 4.5853,-7.8604 0,-5.5678 -4.4215,-8.843 -4.4215,-3.2752 -14.5746,-7.3692 -4.9128,-1.9651 -9.498,-3.9302 -4.4215,-2.1289 -7.6967,-4.9128 -3.2752,-2.7839 -5.2403,-6.7141 -1.9651,-3.9302 -1.9651,-9.6618 0,-11.2993 8.3517,-17.8497 8.3517,-6.7141 22.7625,-6.7141 3.6027,0 7.2054,0.4913 3.6027,0.3275 6.7141,0.9825 3.1115,0.4913 5.4041,1.1463 2.4564,0.6551 3.7664,1.1463 l -2.7839,13.1008 q -2.4563,-1.3101 -7.6966,-2.6202 -5.2403,-1.4738 -12.6095,-1.4738 -6.3866,0 -11.1356,2.6201 -4.749,2.4564 -4.749,7.8605 0,2.7839 0.9826,4.9127 1.1463,2.1289 3.2751,3.9303 2.2927,1.6375 5.5678,3.1114 3.2752,1.4738 7.8605,3.1114 6.0591,2.2926 10.8081,4.5852 4.749,2.1289 8.0242,5.0766 3.4389,2.9476 5.2403,7.2054 1.8013,4.0939 1.8013,10.153 0,11.7907 -8.843,17.8498 -8.6792,6.059 -24.8914,6.059 -11.2993,0 -17.6859,-1.9651 -6.3866,-1.8013 -8.6793,-2.7839 l 2.7839,-13.1007 q 2.6202,0.9826 8.3518,2.9477 5.7315,1.9651 15.2295,1.9651 z m 48.4726,-31.4417 q 0,-11.2994 3.2752,-19.6511 3.2751,-8.5155 8.6792,-14.0833 5.404,-5.5678 12.4457,-8.3517 7.0416,-2.7839 14.4108,-2.7839 17.1947,0 26.3652,10.8081 9.1705,10.6443 9.1705,32.588 0,0.9826 0,2.6202 0,1.4738 -0.1638,2.7839 h -58.2982 q 0.9825,13.2645 7.6967,20.1423 6.7141,6.8779 20.9611,6.8779 8.0242,0 13.4283,-1.3101 5.5678,-1.4738 8.3517,-2.7839 l 2.1288,12.7732 q -2.7839,1.4739 -9.8255,3.1115 -6.8779,1.6375 -15.7209,1.6375 -11.1356,0 -19.3235,-3.2751 -8.0242,-3.439 -13.2645,-9.3343 -5.2403,-5.8953 -7.8604,-13.9195 -2.4564,-8.188 -2.4564,-17.8497 z m 58.4619,-8.3518 q 0.1638,-10.3168 -5.2403,-16.8671 -5.2402,-6.7141 -14.5745,-6.7141 -5.2403,0 -9.3343,2.1288 -3.9302,1.9651 -6.7141,5.2403 -2.7839,3.2752 -4.4215,7.5329 -1.4738,4.2578 -1.9651,8.6792 z m 69.2701,-36.1907 q 1.9651,0 4.4215,0.3275 2.6201,0.1638 5.0765,0.6551 2.4564,0.3275 4.4215,0.8188 2.1289,0.3275 3.1114,0.655 l -2.6201,13.2645 q -1.8014,-0.6551 -6.0591,-1.4739 -4.094,-0.9825 -10.6444,-0.9825 -4.2577,0 -8.5154,0.9825 -4.094,0.8188 -5.4041,1.1464 v 71.5626 h -15.2296 v -81.5519 q 5.4041,-1.9652 13.4283,-3.6027 8.0242,-1.8014 18.0135,-1.8014 z m 101.6942,1.8014 q -6.3866,23.9088 -15.0659,45.8525 -8.5154,21.9437 -16.5396,39.3021 h -13.7558 q -8.0242,-17.3584 -16.7034,-39.3021 -8.5155,-21.9437 -14.9021,-45.8525 h 16.3759 q 1.9652,8.0241 4.5853,17.1947 2.7839,9.0067 5.7316,18.0134 3.1114,8.843 6.2228,17.1947 3.1114,8.3517 5.8953,14.9021 2.7839,-6.5504 5.8954,-14.9021 3.1114,-8.3517 6.059,-17.1947 3.1115,-9.0067 5.7316,-18.0134 2.7839,-9.1706 4.749,-17.1947 z m 30.9507,85.1546 h -15.2296 v -85.1546 h 15.2296 z m -7.6967,-100.548 q -4.094,0 -7.0416,-2.6201 -2.7839,-2.7839 -2.7839,-7.3692 0,-4.5852 2.7839,-7.2054 2.9476,-2.7839 7.0416,-2.7839 4.094,0 6.8779,2.7839 2.9477,2.6202 2.9477,7.2054 0,4.5853 -2.9477,7.3692 -2.7839,2.6201 -6.8779,2.6201 z m 70.9077,102.5131 q -10.3169,0 -18.1773,-3.2751 -7.6967,-3.2752 -13.1007,-9.1705 -5.2403,-5.8954 -7.8604,-13.9196 -2.6202,-8.1879 -2.6202,-18.0134 0,-9.8256 2.7839,-18.0135 2.9477,-8.188 8.188,-14.0833 5.2403,-6.0591 12.7732,-9.3343 7.6966,-3.4389 17.0309,-3.4389 5.7316,0 11.4631,0.9825 5.7316,0.9826 10.9719,3.1115 l -3.4389,12.9369 q -3.439,-1.6376 -8.0242,-2.6201 -4.4215,-0.9826 -9.4981,-0.9826 -12.7732,0 -19.651,8.0242 -6.7142,8.0242 -6.7142,23.4176 0,6.8778 1.4739,12.6094 1.6376,5.7316 4.9127,9.8255 3.439,4.094 8.6793,6.3866 5.2403,2.1289 12.7732,2.1289 6.0591,0 10.9718,-1.1463 4.9128,-1.1463 7.6967,-2.4564 l 2.1289,12.7732 q -1.3101,0.8188 -3.7665,1.6376 -2.4564,0.655 -5.5678,1.1463 -3.1114,0.6551 -6.7141,0.9826 -3.439,0.4912 -6.7141,0.4912 z m 34.3894,-44.3786 q 0,-11.2994 3.2751,-19.6511 3.2752,-8.5155 8.6793,-14.0833 5.404,-5.5678 12.4457,-8.3517 7.0416,-2.7839 14.4107,-2.7839 17.1947,0 26.3652,10.8081 9.1706,10.6443 9.1706,32.588 0,0.9826 0,2.6202 0,1.4738 -0.1638,2.7839 h -58.2982 q 0.9825,13.2645 7.6967,20.1423 6.7141,6.8779 20.9611,6.8779 8.0242,0 13.4283,-1.3101 5.5678,-1.4738 8.3517,-2.7839 l 2.1288,12.7732 q -2.7839,1.4739 -9.8255,3.1115 -6.8779,1.6375 -15.7209,1.6375 -11.1356,0 -19.3235,-3.2751 -8.0242,-3.439 -13.2645,-9.3343 -5.2403,-5.8953 -7.8604,-13.9195 -2.4564,-8.188 -2.4564,-17.8497 z m 58.4619,-8.3518 q 0.1638,-10.3168 -5.2403,-16.8671 -5.2402,-6.7141 -14.5745,-6.7141 -5.2403,0 -9.3343,2.1288 -3.9302,1.9651 -6.7141,5.2403 -2.7839,3.2752 -4.4215,7.5329 -1.4738,4.2578 -1.9651,8.6792 z m 57.6432,39.7935 q 9.3342,0 13.7557,-2.4564 4.5853,-2.4564 4.5853,-7.8604 0,-5.5678 -4.4215,-8.843 -4.4215,-3.2752 -14.5746,-7.3692 -4.9127,-1.9651 -9.498,-3.9302 -4.4215,-2.1289 -7.6967,-4.9128 -3.2751,-2.7839 -5.2402,-6.7141 -1.9652,-3.9302 -1.9652,-9.6618 0,-11.2993 8.3518,-17.8497 8.3517,-6.7141 22.7625,-6.7141 3.6027,0 7.2054,0.4913 3.6027,0.3275 6.7141,0.9825 3.1114,0.4913 5.404,1.1463 2.4564,0.6551 3.7665,1.1463 l -2.7839,13.1008 q -2.4564,-1.3101 -7.6967,-2.6202 -5.2403,-1.4738 -12.6094,-1.4738 -6.3866,0 -11.1357,2.6201 -4.749,2.4564 -4.749,7.8605 0,2.7839 0.9826,4.9127 1.1463,2.1289 3.2752,3.9303 2.2926,1.6375 5.5678,3.1114 3.2752,1.4738 7.8604,3.1114 6.0591,2.2926 10.8081,4.5852 4.749,2.1289 8.0242,5.0766 3.4389,2.9476 5.2403,7.2054 1.8013,4.0939 1.8013,10.153 0,11.7907 -8.843,17.8498 -8.6792,6.059 -24.8913,6.059 -11.2994,0 -17.686,-1.9651 -6.3866,-1.8013 -8.6792,-2.7839 l 2.7839,-13.1007 q 2.6201,0.9826 8.3517,2.9477 5.7316,1.9651 15.2296,1.9651 z m 160.6476,10.9718 q -4.5853,-11.7906 -9.8256,-26.8564 -5.0765,-15.2296 -9.3342,-31.6055 -4.2578,16.3759 -9.3343,31.6055 -5.0765,15.0658 -9.6618,26.8564 h -13.2644 q -7.533,-16.8671 -14.7384,-38.4833 -7.2054,-21.6162 -13.592,-46.6713 h 16.3759 q 1.6376,7.6966 3.9303,16.7034 2.2926,9.0067 4.749,18.0135 2.6201,9.0067 5.404,17.3584 2.7839,8.3517 5.2403,14.5746 2.7839,-7.6967 5.4041,-16.2122 2.7839,-8.6792 5.2402,-17.3584 2.4564,-8.843 4.5853,-17.1947 2.2926,-8.5155 3.9302,-15.8846 h 12.6095 q 1.4738,7.3691 3.6027,15.8846 2.1288,8.3517 4.5852,17.1947 2.4564,8.6792 5.0765,17.3584 2.7839,8.5155 5.5678,16.2122 2.4564,-6.2229 5.0766,-14.5746 2.7839,-8.3517 5.404,-17.3584 2.6202,-9.0068 4.9128,-18.0135 2.2926,-9.0068 3.9302,-16.7034 h 15.7209 q -6.3866,25.0551 -13.592,46.6713 -7.2054,21.6162 -14.7383,38.4833 z m 72.8728,0 h -15.2295 v -85.1546 h 15.2295 z m -7.6966,-100.548 q -4.094,0 -7.0417,-2.6201 -2.7839,-2.7839 -2.7839,-7.3692 0,-4.5852 2.7839,-7.2054 2.9477,-2.7839 7.0417,-2.7839 4.0939,0 6.8778,2.7839 2.9477,2.6202 2.9477,7.2054 0,4.5853 -2.9477,7.3692 -2.7839,2.6201 -6.8778,2.6201 z m 48.1451,15.3934 h 32.2605 v 12.7732 h -32.2605 v 39.3021 q 0,6.3866 0.9826,10.6444 0.9825,4.0939 2.9476,6.5503 1.9651,2.2926 4.9128,3.2752 2.9477,0.9825 6.8779,0.9825 6.8779,0 10.9718,-1.4738 4.2578,-1.6376 5.8954,-2.2926 l 2.9476,12.6094 q -2.2926,1.1463 -8.0242,2.7839 -5.7315,1.8014 -13.1007,1.8014 -8.6792,0 -14.4108,-2.1289 -5.5678,-2.2926 -9.0067,-6.7141 -3.439,-4.4215 -4.9128,-10.8081 -1.3101,-6.5504 -1.3101,-15.0658 v -75.9842 l 15.2296,-2.6201 z m 51.5842,85.1546 v -124.4568 l 15.2295,-2.6201 v 43.5598 q 4.2578,-1.6375 9.0068,-2.4563 4.9128,-0.9826 9.6618,-0.9826 10.153,0 16.8671,2.9477 6.7142,2.7839 10.6444,8.0242 4.094,5.0765 5.7315,12.2819 1.6376,7.2054 1.6376,15.8846 v 47.8176 h -15.2295 v -44.5424 q 0,-7.8604 -1.1464,-13.4282 -0.9825,-5.5679 -3.4389,-9.0068 -2.4564,-3.4389 -6.5504,-4.9128 -4.0939,-1.6376 -10.153,-1.6376 -2.4564,0 -5.0765,0.3276 -2.6202,0.3275 -5.0766,0.8188 -2.2926,0.3275 -4.2577,0.8188 -1.8014,0.4912 -2.6202,0.8187 v 70.7439 z m 151.1495,-10.9718 q 9.3343,0 13.7558,-2.4564 4.5852,-2.4564 4.5852,-7.8604 0,-5.5678 -4.4215,-8.843 -4.4215,-3.2752 -14.5745,-7.3692 -4.9128,-1.9651 -9.498,-3.9302 -4.4215,-2.1289 -7.6967,-4.9128 -3.2752,-2.7839 -5.2403,-6.7141 -1.9651,-3.9302 -1.9651,-9.6618 0,-11.2993 8.3517,-17.8497 8.3517,-6.7141 22.7625,-6.7141 3.6027,0 7.2054,0.4913 3.6027,0.3275 6.7141,0.9825 3.1114,0.4913 5.4041,1.1463 2.4563,0.6551 3.7664,1.1463 l -2.7839,13.1008 q -2.4564,-1.3101 -7.6967,-2.6202 -5.2402,-1.4738 -12.6094,-1.4738 -6.3866,0 -11.1356,2.6201 -4.749,2.4564 -4.749,7.8605 0,2.7839 0.9825,4.9127 1.1463,2.1289 3.2752,3.9303 2.2926,1.6375 5.5678,3.1114 3.2752,1.4738 7.8604,3.1114 6.0591,2.2926 10.8081,4.5852 4.7491,2.1289 8.0242,5.0766 3.439,2.9476 5.2403,7.2054 1.8014,4.0939 1.8014,10.153 0,11.7907 -8.843,17.8498 -8.6792,6.059 -24.8914,6.059 -11.2994,0 -17.686,-1.9651 -6.3866,-1.8013 -8.6792,-2.7839 l 2.7839,-13.1007 q 2.6202,0.9826 8.3517,2.9477 5.7316,1.9651 15.2296,1.9651 z m 84.0082,-35.8632 q 4.9128,3.7664 10.3169,9.3342 5.5678,5.5678 10.8081,12.1182 5.404,6.3866 10.153,13.1007 4.749,6.5504 8.0242,12.2819 h -17.8497 q -3.439,-5.7315 -8.0242,-11.6269 -4.4215,-6.059 -9.3343,-11.4631 -4.9128,-5.5678 -9.9893,-10.153 -5.0765,-4.5853 -9.6618,-7.6967 v 40.9397 h -15.2295 v -124.4568 l 15.2295,-2.6201 v 77.6217 q 3.9303,-3.9302 8.6793,-8.6792 4.749,-4.749 9.3342,-9.6618 4.5853,-4.9128 8.6793,-9.3343 4.0939,-4.5852 7.0416,-8.0241 h 17.8497 q -3.7664,4.0939 -8.1879,9.0067 -4.4215,4.9128 -9.1705,9.9893 -4.749,4.9128 -9.6618,9.9893 -4.749,4.9128 -9.0068,9.3343 z m 69.925,46.835 h -15.2296 v -85.1546 h 15.2296 z m -7.6967,-100.548 q -4.094,0 -7.0416,-2.6201 -2.7839,-2.7839 -2.7839,-7.3692 0,-4.5852 2.7839,-7.2054 2.9476,-2.7839 7.0416,-2.7839 4.094,0 6.8779,2.7839 2.9477,2.6202 2.9477,7.2054 0,4.5853 -2.9477,7.3692 -2.7839,2.6201 -6.8779,2.6201 z m 59.4447,102.1856 q -14.0833,-0.3275 -19.9786,-6.0591 -5.8954,-5.7315 -5.8954,-17.8497 v -102.1856 l 15.2296,-2.6201 v 102.3493 q 0,3.7665 0.6551,6.2229 0.655,2.4564 2.1288,3.9302 1.4739,1.4738 3.9302,2.2926 2.4564,0.655 6.0591,1.1463 z m 44.7063,0 q -14.0833,-0.3275 -19.9786,-6.0591 -5.8954,-5.7315 -5.8954,-17.8497 v -102.1856 l 15.2296,-2.6201 v 102.3493 q 0,3.7665 0.6551,6.2229 0.655,2.4564 2.1288,3.9302 1.4739,1.4738 3.9302,2.2926 2.4564,0.655 6.0591,1.1463 z"
       id="text128"
       transform="scale(0.99982742,1.0001726)"
       aria-label="Automation services with skill" />
  </g>
</svg>
