<?xml version="1.0" encoding="UTF-8" standalone="no"?>
<!-- Created with Inkscape (http://www.inkscape.org/) -->

<svg
   version="1.1"
   id="svg1"
   width="2548.7334"
   height="1432.5067"
   viewBox="0 0 2548.7334 1432.5067"
   sodipodi:docname="Logo_Askill_fondos_negros.svg"
   inkscape:version="1.4.4 (dcaf3e7, 2026-05-05)"
   inkscape:export-filename="Logo_Askill_fondos_negros.png"
   inkscape:export-xdpi="96"
   inkscape:export-ydpi="96"
   xmlns:inkscape="http://www.inkscape.org/namespaces/inkscape"
   xmlns:sodipodi="http://sodipodi.sourceforge.net/DTD/sodipodi-0.dtd"
   xmlns="http://www.w3.org/2000/svg"
   xmlns:svg="http://www.w3.org/2000/svg">
  <defs
     id="defs1">
    <clipPath
       clipPathUnits="userSpaceOnUse"
       id="clipPath2">
      <path
         d="M 0,1074.3831 H 1911.545 V 2.5000001e-5 H 0 Z"
         id="path2" />
    </clipPath>
    <clipPath
       clipPathUnits="userSpaceOnUse"
       id="clipPath4">
      <path
         d="M -1736.8731,1022.1048 H 174.67198 V -52.278276 H -1736.8731 Z"
         id="path4" />
    </clipPath>
    <clipPath
       clipPathUnits="userSpaceOnUse"
       id="clipPath6">
      <path
         d="M -1736.8731,1060.3044 H 174.67198 V -14.078675 H -1736.8731 Z"
         id="path6" />
    </clipPath>
    <clipPath
       clipPathUnits="userSpaceOnUse"
       id="clipPath8">
      <path
         d="M -1736.8731,1098.504 H 174.67198 V 24.121001 H -1736.8731 Z"
         id="path8" />
    </clipPath>
    <clipPath
       clipPathUnits="userSpaceOnUse"
       id="clipPath10">
      <path
         d="M -2004.2893,1022.1048 H -92.744202 V -52.278276 H -2004.2893 Z"
         id="path10" />
    </clipPath>
    <clipPath
       clipPathUnits="userSpaceOnUse"
       id="clipPath12">
      <path
         d="M -2004.2893,1060.3044 H -92.744202 V -14.078675 H -2004.2893 Z"
         id="path12" />
    </clipPath>
    <clipPath
       clipPathUnits="userSpaceOnUse"
       id="clipPath14">
      <path
         d="M -2004.2893,1098.504 H -92.744202 V 24.121001 H -2004.2893 Z"
         id="path14" />
    </clipPath>
  </defs>
  <sodipodi:namedview
     id="namedview1"
     pagecolor="#505050"
     bordercolor="#eeeeee"
     borderopacity="1"
     inkscape:showpageshadow="0"
     inkscape:pageopacity="0"
     inkscape:pagecheckerboard="0"
     inkscape:deskcolor="#505050"
     inkscape:zoom="0.39834729"
     inkscape:cx="1286.5658"
     inkscape:cy="904.98921"
     inkscape:window-width="1920"
     inkscape:window-height="1009"
     inkscape:window-x="-8"
     inkscape:window-y="-8"
     inkscape:window-maximized="1"
     inkscape:current-layer="layer-MC1">
    <inkscape:page
       x="0"
       y="0"
       inkscape:label="1"
       id="page1"
       width="2548.7334"
       height="1432.5067"
       margin="0"
       bleed="0" />
  </sodipodi:namedview>
  <g
     id="layer-MC1"
     inkscape:groupmode="layer"
     inkscape:label="Capa 3">
    <path
       id="path92"
       d="M 0,1432.5106 H 2548.7266 V 0 H 0 Z"
       style="fill:none;fill-opacity:1;fill-rule:nonzero;stroke:none;stroke-width:1.33333" />
    <g
       id="g130"
       transform="translate(21.274895)">
      <g
         id="g128">
        <path
           id="path93"
           d="m 0,0 h -227.912 c -22.091,0 -40,17.909 -40,40 v 51.295 c 0,22.091 17.909,40 40,40 H 0 c 22.091,0 40,-17.909 40,-40 V 40 C 40,17.909 22.091,0 0,0"
           style="fill:#f3672e;fill-opacity:1;fill-rule:nonzero;stroke:none"
           transform="matrix(1.3333333,0,0,-1.3333333,650.36173,927.1784)" />
        <path
           id="path94"
           d="m 0,0 h -429.63 c -22.092,0 -40,17.909 -40,40 v 76.197 c 0,22.092 17.908,40 40,40 H 0 c 22.091,0 40,-17.908 40,-40 V 40 C 40,17.909 22.091,0 0,0"
           style="fill:#2f2c2c;fill-opacity:1;fill-rule:nonzero;stroke:none"
           transform="matrix(1.3333333,0,0,-1.3333333,784.4984,1012.4809)" />
        <path
           id="path95"
           d="M 0,0 H 102.723"
           style="fill:none;stroke:#ffffff;stroke-width:6;stroke-linecap:round;stroke-linejoin:round;stroke-miterlimit:4;stroke-dasharray:none;stroke-opacity:1"
           transform="matrix(1.3333333,0,0,-1.3333333,373.5112,911.18293)" />
        <path
           id="path96"
           d="M 0,0 H -46.225"
           style="fill:none;stroke:#ffffff;stroke-width:6;stroke-linecap:round;stroke-linejoin:round;stroke-miterlimit:4;stroke-dasharray:none;stroke-opacity:1"
           transform="matrix(1.3333333,0,0,-1.3333333,342.86373,913.30373)" />
        <path
           id="path97"
           d="M 0,0 V -73.54"
           style="fill:none;stroke:#ffffff;stroke-width:6;stroke-linecap:round;stroke-linejoin:round;stroke-miterlimit:4;stroke-dasharray:none;stroke-opacity:1"
           transform="matrix(1.3333333,0,0,-1.3333333,344.34267,862.1192)" />
        <path
           id="path98"
           d="M 0,0 V -73.54"
           style="fill:none;stroke:#ffffff;stroke-width:6;stroke-linecap:round;stroke-linejoin:round;stroke-miterlimit:4;stroke-dasharray:none;stroke-opacity:1"
           transform="matrix(1.3333333,0,0,-1.3333333,372.14733,862.1192)" />
        <path
           id="path99"
           d="m 0,0 c 16.171,4.624 27.923,18.611 27.923,35.148 0,16.244 -11.34,30.027 -27.069,34.893"
           style="fill:none;stroke:#ffffff;stroke-width:6;stroke-linecap:round;stroke-linejoin:round;stroke-miterlimit:4;stroke-dasharray:none;stroke-opacity:1"
           transform="matrix(1.3333333,0,0,-1.3333333,611.38467,955.88853)" />
        <path
           id="path100"
           d="M 0,0 46.225,-0.005"
           style="fill:none;stroke:#ffffff;stroke-width:6;stroke-linecap:round;stroke-linejoin:round;stroke-miterlimit:4;stroke-dasharray:none;stroke-opacity:1"
           transform="matrix(1.3333333,0,0,-1.3333333,653.29267,911.17973)" />
        <path
           id="path101"
           d="m 0,0 c -16.171,-4.624 -27.923,-18.611 -27.923,-35.148 0,-16.244 11.34,-30.027 27.069,-34.893"
           style="fill:none;stroke:#ffffff;stroke-width:6;stroke-linecap:round;stroke-linejoin:round;stroke-miterlimit:4;stroke-dasharray:none;stroke-opacity:1"
           transform="matrix(1.3333333,0,0,-1.3333333,547.70667,862.3236)" />
        <path
           id="path102"
           d="m 0,0 c -41.305,0 -45.475,52.613 -12.729,63.469 1.736,0.999 3.568,1.906 5.589,2.61 -14.713,11.389 -33.701,18.289 -54.474,18.289 -46.662,0 -84.489,-34.645 -84.489,-77.382 0,-0.426 0.062,-0.836 0.069,-1.26 4.358,1.843 9.449,2.907 15.288,2.907 39.708,0 45.09,-48.615 16.36,-62.024 14.464,-10.619 32.793,-17.005 52.772,-17.005 46.158,0 83.605,33.917 84.408,76.018 C 19.9,3.994 16.57,2.8 12.894,2.034 9.089,0.751 4.811,0 0,0"
           style="fill:#f3672e;fill-opacity:1;fill-rule:nonzero;stroke:none"
           transform="matrix(1.3333333,0,0,-1.3333333,575.916,503.74867)" />
        <path
           id="path103"
           d="m 0,0 c -41.305,0 -45.475,52.613 -12.729,63.469 1.736,0.999 3.568,1.906 5.589,2.61 -14.713,11.389 -33.701,18.289 -54.474,18.289 -46.662,0 -84.489,-34.645 -84.489,-77.382 0,-0.426 0.062,-0.836 0.069,-1.26 4.358,1.843 9.449,2.907 15.288,2.907 39.708,0 45.09,-48.615 16.36,-62.024 14.464,-10.619 32.793,-17.005 52.772,-17.005 46.158,0 83.605,33.917 84.408,76.018 C 19.9,3.994 16.57,2.8 12.894,2.034 9.089,0.751 4.811,0 0,0"
           style="fill:#f3672e;fill-opacity:1;fill-rule:nonzero;stroke:none"
           transform="matrix(1.3333333,0,0,-1.3333333,575.916,503.74867)" />
        <path
           id="path104"
           d="m 0,0 c 0,-2.307 -2.042,-4.177 -4.561,-4.177 -2.519,0 -4.561,1.87 -4.561,4.177 0,2.307 2.042,4.177 4.561,4.177 C -2.042,4.177 0,2.307 0,0 Z"
           style="fill:none;stroke:#dd492a;stroke-width:5;stroke-linecap:round;stroke-linejoin:round;stroke-miterlimit:4;stroke-dasharray:none;stroke-opacity:1"
           transform="matrix(1.3333333,0,0,-1.3333333,542.7728,569.0108)" />
        <path
           id="path105"
           d="m 0,0 c 0,-2.307 -2.042,-4.177 -4.561,-4.177 -2.519,0 -4.561,1.87 -4.561,4.177 0,2.307 2.042,4.177 4.561,4.177 C -2.042,4.177 0,2.307 0,0 Z"
           style="fill:none;stroke:#dd492a;stroke-width:5;stroke-linecap:round;stroke-linejoin:round;stroke-miterlimit:4;stroke-dasharray:none;stroke-opacity:1"
           transform="matrix(1.3333333,0,0,-1.3333333,421.55427,471.4052)" />
        <path
           id="path106"
           d="m 0,0 c 0,-2.307 -2.042,-4.177 -4.561,-4.177 -2.519,0 -4.561,1.87 -4.561,4.177 0,2.307 2.042,4.177 4.561,4.177 C -2.042,4.177 0,2.307 0,0 Z"
           style="fill:none;stroke:#dd492a;stroke-width:5;stroke-linecap:round;stroke-linejoin:round;stroke-miterlimit:4;stroke-dasharray:none;stroke-opacity:1"
           transform="matrix(1.3333333,0,0,-1.3333333,467.56867,423.3636)" />
        <path
           id="path107"
           d="m 0,0 c 0,-2.307 -2.042,-4.177 -4.561,-4.177 -2.519,0 -4.561,1.87 -4.561,4.177 0,2.307 2.042,4.177 4.561,4.177 C -2.042,4.177 0,2.307 0,0 Z"
           style="fill:none;stroke:#dd492a;stroke-width:5;stroke-linecap:round;stroke-linejoin:round;stroke-miterlimit:4;stroke-dasharray:none;stroke-opacity:1"
           transform="matrix(1.3333333,0,0,-1.3333333,538.71867,417.794)" />
        <path
           id="path108"
           d="m 0,0 c 0,-2.307 -2.042,-4.177 -4.561,-4.177 -2.519,0 -4.561,1.87 -4.561,4.177 0,2.307 2.042,4.177 4.561,4.177 C -2.042,4.177 0,2.307 0,0 Z"
           style="fill:none;stroke:#dd492a;stroke-width:5;stroke-linecap:round;stroke-linejoin:round;stroke-miterlimit:4;stroke-dasharray:none;stroke-opacity:1"
           transform="matrix(1.3333333,0,0,-1.3333333,467.56867,572.9096)" />
        <path
           id="path109"
           d="m 0,0 c 0,-2.307 -2.042,-4.177 -4.561,-4.177 -2.519,0 -4.561,1.87 -4.561,4.177 0,2.307 2.042,4.177 4.561,4.177 C -2.042,4.177 0,2.307 0,0 Z"
           style="fill:none;stroke:#dd492a;stroke-width:5;stroke-linecap:round;stroke-linejoin:round;stroke-miterlimit:4;stroke-dasharray:none;stroke-opacity:1"
           transform="matrix(1.3333333,0,0,-1.3333333,586.76013,522.22547)" />
        <path
           id="path110"
           d="m 0,0 h -128.894 c -11.045,0 -20,8.954 -20,20 v 66.05 c 0,11.046 8.955,20 20,20 H 0 c 11.046,0 20,-8.954 20,-20 V 20 C 20,8.954 11.046,0 0,0"
           style="fill:#2f2c2c;fill-opacity:1;fill-rule:nonzero;stroke:none"
           transform="matrix(1.3333333,0,0,-1.3333333,584.718,745.56493)" />
        <path
           id="path111"
           d="m 0,0 -91.094,-82.25 c -7.228,-6.525 -18.221,-6.525 -25.448,0 l -104.839,94.66 c -8.35,7.539 -8.35,20.645 0,28.184 l 91.094,82.25 c 7.228,6.526 18.221,6.526 25.448,0 L 0,28.184 C 8.35,20.645 8.35,7.539 0,0"
           style="fill:#2f2c2c;fill-opacity:1;fill-rule:nonzero;stroke:none"
           transform="matrix(1.3333333,0,0,-1.3333333,474.84173,362.62627)" />
        <path
           id="path112"
           d="m 0,0 h -79.709 c -24.852,0 -45,20.147 -45,45 v 105.362 c 0,24.853 20.148,45 45,45 H 0 c 24.853,0 45,-20.147 45,-45 V 45 C 45,20.147 24.853,0 0,0"
           style="fill:#ffffff;fill-opacity:1;fill-rule:nonzero;stroke:#2f2c2c;stroke-width:3.75;stroke-linecap:butt;stroke-linejoin:miter;stroke-miterlimit:10;stroke-dasharray:none;stroke-opacity:1"
           transform="matrix(1.3333333,0,0,-1.3333333,343.51067,428.0156)" />
        <path
           id="path113"
           d="M 0,0 22.071,40.7"
           style="fill:#ffffff;fill-opacity:1;fill-rule:nonzero;stroke:#2f2c2c;stroke-width:6;stroke-linecap:round;stroke-linejoin:round;stroke-miterlimit:4;stroke-dasharray:none;stroke-opacity:1"
           transform="matrix(1.3333333,0,0,-1.3333333,275.52293,379.47693)" />
        <path
           id="path114"
           d="m 0,0 36.282,15.709 c 0,0 0.045,0.019 0.12,0.051 C 33.245,17.171 0.978,31.211 0.978,31.211"
           style="fill:#ffffff;fill-opacity:1;fill-rule:nonzero;stroke:#2f2c2c;stroke-width:6;stroke-linecap:round;stroke-linejoin:round;stroke-miterlimit:4;stroke-dasharray:none;stroke-opacity:1"
           transform="matrix(1.3333333,0,0,-1.3333333,314.6116,374.32987)" />
        <path
           id="path115"
           d="M 0,0 -36.402,-15.603 0,-31.211"
           style="fill:#ffffff;fill-opacity:1;fill-rule:nonzero;stroke:#2f2c2c;stroke-width:6;stroke-linecap:round;stroke-linejoin:round;stroke-miterlimit:4;stroke-dasharray:none;stroke-opacity:1"
           transform="matrix(1.3333333,0,0,-1.3333333,264.18907,332.7152)" />
        <path
           id="path116"
           d="M 25.14988,-7.9297759 H 11.251442 L 8.6147234,3.8244735e-4 H 0.18894219 L 14.497536,-38.456343 h 7.347656 L 36.235817,3.8244735e-4 H 27.810036 Z M 13.395973,-14.341393 h 9.609375 L 18.177223,-28.735085 Z M 48.265114,3.8244735e-4 H 40.343239 V -38.456343 h 7.921875 z m 0,0"
           style="fill:#2f2c2c;fill-opacity:1;fill-rule:nonzero;stroke:none"
           aria-label="AI"
           transform="matrix(1.3333333,0,0,1.2038694,255.59573,257.55813)" />
        <path
           id="path117"
           d="M 0,0 H 35.419"
           style="fill:#306abb;fill-opacity:1;fill-rule:nonzero;stroke:#f3672e;stroke-width:6;stroke-linecap:round;stroke-linejoin:round;stroke-miterlimit:4;stroke-dasharray:none;stroke-opacity:1"
           transform="matrix(1.3333333,0,0,-1.3333333,154.36307,330.81373)" />
        <path
           id="path118"
           d="M 0,0 H 35.419"
           style="fill:#306abb;fill-opacity:1;fill-rule:nonzero;stroke:#f3672e;stroke-width:6;stroke-linecap:round;stroke-linejoin:round;stroke-miterlimit:4;stroke-dasharray:none;stroke-opacity:1"
           transform="matrix(1.3333333,0,0,-1.3333333,375.9672,277.13107)" />
        <path
           id="path119"
           d="M 0,0 H 35.419"
           style="fill:#306abb;fill-opacity:1;fill-rule:nonzero;stroke:#f3672e;stroke-width:6;stroke-linecap:round;stroke-linejoin:round;stroke-miterlimit:4;stroke-dasharray:none;stroke-opacity:1"
           transform="matrix(1.3333333,0,0,-1.3333333,375.9672,223.44827)" />
        <path
           id="path120"
           d="M 0,0 H 35.419"
           style="fill:#306abb;fill-opacity:1;fill-rule:nonzero;stroke:#f3672e;stroke-width:6;stroke-linecap:round;stroke-linejoin:round;stroke-miterlimit:4;stroke-dasharray:none;stroke-opacity:1"
           transform="matrix(1.3333333,0,0,-1.3333333,154.36307,223.44827)" />
        <path
           id="path121"
           d="M 0,0 H 35.419"
           style="fill:#306abb;fill-opacity:1;fill-rule:nonzero;stroke:#f3672e;stroke-width:6;stroke-linecap:round;stroke-linejoin:round;stroke-miterlimit:4;stroke-dasharray:none;stroke-opacity:1"
           transform="matrix(1.3333333,0,0,-1.3333333,375.9672,330.81373)" />
        <path
           id="path122"
           d="M 0,0 H 35.419"
           style="fill:#306abb;fill-opacity:1;fill-rule:nonzero;stroke:#f3672e;stroke-width:6;stroke-linecap:round;stroke-linejoin:round;stroke-miterlimit:4;stroke-dasharray:none;stroke-opacity:1"
           transform="matrix(1.3333333,0,0,-1.3333333,154.36307,277.13107)" />
      </g>
      <g
         id="g129"
         transform="translate(0,17.289718)">
        <text
           id="text122"
           xml:space="preserve"
           transform="matrix(1.3333333,0,0,1.3333333,858.5892,724.16027)"><tspan
             id="tspan122"
             style="font-variant:normal;font-weight:700;font-stretch:normal;font-size:327.574px;font-family:Ubuntu;writing-mode:lr-tb;fill:#f3672e;fill-opacity:1;fill-rule:nonzero;stroke:none"
             x="0"
             y="0">ASKILL</tspan></text>
      </g>
    </g>
    <text
       id="text128"
       xml:space="preserve"
       transform="scale(0.99982742,1.0001726)"
       x="170.35957"
       y="1234.1036"
       style="font-size:14.5417px;stroke-width:1.2118"><tspan
         id="tspan128"
         style="font-style:normal;font-variant:normal;font-weight:normal;font-stretch:normal;font-size:163.759px;font-family:Ubuntu;-inkscape-font-specification:'Ubuntu, Normal';font-variant-ligatures:normal;font-variant-caps:normal;font-variant-numeric:normal;font-variant-east-asian:normal;writing-mode:lr-tb;fill:#c7c8c6;fill-opacity:1;fill-rule:nonzero;stroke:none;stroke-width:1.2118"
         x="170.35957"
         y="1234.1036">Automation services with skill</tspan></text>
  </g>
</svg>
